<!DOCTYPE svg PUBLIC "-//W3C//DTD SVG 20010904//EN" "http://www.w3.org/TR/2001/REC-SVG-20010904/DTD/svg10.dtd">
<svg version="1.0" xmlns="http://www.w3.org/2000/svg" width="640px" height="640px" viewBox="0 0 6400 6400" preserveAspectRatio="xMidYMid meet">
<g id="layer101" fill="#13262a" stroke="none">
<path d="M0 3200 l0 -3200 3200 0 3200 0 0 3200 0 3200 -3200 0 -3200 0 0 -3200z"/>
</g>
<g id="layer102" fill="#314d54" stroke="none">
<path d="M0 3200 l0 -3200 3200 0 3200 0 0 3200 0 3200 -3200 0 -3200 0 0 -3200z m3970 1069 c0 -6 14 -31 31 -55 33 -49 125 -121 202 -161 38 -19 48 -28 45 -46 -2 -16 -9 -21 -23 -19 -11 2 -54 6 -96 9 -91 6 -134 -5 -175 -48 -26 -28 -29 -37 -28 -97 1 -125 78 -242 251 -384 54 -44 73 -66 73 -84 0 -13 -2 -24 -4 -24 -2 0 -37 20 -78 45 -95 59 -192 89 -263 82 -106 -11 -140 -61 -133 -196 6 -111 30 -171 116 -290 73 -104 289 -334 334 -357 l28 -15 -2 -787 -3 -787 -927 -3 -928 -2 0 1615 0 1615 790 0 c554 0 790 -3 790 -11z"/>
</g>
<g id="layer103" fill="#40666f" stroke="none">
<path d="M0 3200 l0 -3200 3200 0 3200 0 0 3200 0 3200 -2327 0 c-2091 0 -2333 -2 -2373 -16 -204 -71 -857 -199 -1075 -210 -60 -3 -135 -2 -165 3 -59 9 -66 16 -159 167 l-35 56 -133 0 -133 0 0 -3200z m3979 1055 c42 -78 87 -117 234 -205 28 -16 37 -28 35 -44 -2 -15 -9 -20 -23 -18 -11 1 -56 5 -100 8 -71 5 -85 3 -124 -18 -60 -31 -84 -77 -76 -141 15 -121 75 -213 225 -342 75 -65 100 -93 100 -111 0 -31 -6 -30 -70 11 -83 54 -185 89 -255 89 -99 1 -144 -44 -153 -149 -9 -119 35 -228 154 -382 85 -108 258 -290 296 -309 l28 -15 -2 -787 -3 -787 -927 -3 -928 -2 0 1613 c0 888 3 1617 7 1621 4 3 358 5 786 4 l780 -3 16 -30z"/>
</g>
<g id="layer104" fill="#5b94a2" stroke="none">
<path d="M0 3200 l0 -3200 3200 0 3200 0 0 3200 0 3200 -1951 0 -1950 0 6 -22 c11 -35 89 -178 187 -340 49 -81 91 -154 94 -161 4 -11 -7 -16 -41 -21 -259 -39 -695 -282 -1085 -605 -84 -70 -291 -255 -324 -290 -17 -17 -35 -31 -40 -31 -6 1 -35 39 -65 86 -80 126 -253 372 -567 804 -154 212 -307 428 -340 480 l-59 95 -133 3 -132 3 0 -3201z m3984 1048 c36 -61 93 -114 183 -168 63 -38 78 -52 78 -71 0 -21 -4 -24 -30 -21 -102 9 -192 5 -221 -10 -53 -29 -67 -61 -62 -142 8 -120 76 -224 232 -351 68 -55 86 -75 86 -95 0 -15 -2 -29 -5 -32 -3 -3 -35 14 -70 37 -114 77 -261 108 -332 72 -54 -28 -68 -61 -67 -157 1 -97 18 -155 72 -244 66 -110 295 -368 364 -412 l38 -24 -2 -788 -3 -787 -927 -3 -928 -2 0 1620 0 1620 785 0 784 0 25 -42z"/>
</g>
<g id="layer105" fill="#79a4af" stroke="none">
<path d="M2349 5712 c-276 -138 -533 -321 -860 -610 l-117 -102 18 -38 c23 -48 65 -213 85 -332 9 -54 19 -217 25 -376 10 -314 28 -459 70 -581 34 -97 112 -255 180 -363 126 -201 192 -411 206 -655 4 -66 13 -134 20 -151 17 -42 88 -104 118 -104 56 0 103 68 151 215 12 38 27 71 34 73 8 3 11 -224 11 -897 0 -742 2 -907 14 -935 21 -51 76 -107 131 -132 l50 -24 836 0 837 0 53 28 c60 31 113 93 129 150 5 20 10 97 10 170 0 110 2 132 15 132 23 0 26 31 23 280 l-3 235 26 22 c14 12 36 50 48 83 32 87 37 155 16 225 -19 68 -104 245 -116 245 -5 0 -9 86 -9 190 0 154 3 190 14 190 30 0 103 95 126 164 29 88 25 198 -10 266 -26 50 -88 138 -113 159 -11 9 -17 29 -17 57 l0 44 43 -30 c55 -40 105 -47 162 -26 131 50 186 254 108 397 -41 77 -200 212 -283 241 -22 7 -30 16 -30 34 0 13 1 24 3 24 1 0 29 -11 62 -25 109 -45 184 -25 232 60 27 47 32 165 10 218 -36 84 -118 144 -283 207 -19 8 -22 18 -26 97 -3 75 -9 97 -31 136 -55 93 -129 127 -277 127 l-97 0 -65 78 c-107 126 -426 433 -507 487 -84 55 -330 182 -406 209 -27 10 -69 26 -92 37 -24 10 -47 19 -53 19 -6 0 -18 4 -28 9 -9 5 -28 13 -42 18 -72 28 -127 57 -175 93 -30 22 -58 40 -63 40 -5 0 -78 -35 -163 -78z m1635 -1464 c36 -61 93 -114 183 -168 63 -38 78 -52 78 -71 0 -21 -4 -24 -30 -21 -102 9 -192 5 -221 -10 -53 -29 -67 -61 -62 -142 8 -120 76 -224 232 -351 68 -55 86 -75 86 -95 0 -15 -2 -29 -5 -32 -3 -3 -35 14 -70 37 -114 77 -261 108 -332 72 -54 -28 -68 -61 -67 -157 1 -97 18 -155 72 -244 66 -110 295 -368 364 -412 l38 -24 -2 -788 -3 -787 -927 -3 -928 -2 0 1620 0 1620 785 0 784 0 25 -42z"/>
</g>
<g id="layer106" fill="#98a9ad" stroke="none">
<path d="M2349 5712 c-276 -138 -533 -321 -860 -610 l-117 -102 18 -38 c23 -48 65 -212 85 -332 9 -56 20 -210 25 -375 10 -313 28 -459 70 -582 34 -97 112 -255 180 -363 126 -202 192 -411 206 -655 7 -135 21 -172 79 -223 82 -72 145 -17 210 183 12 38 27 71 34 73 8 3 11 -223 11 -896 l0 -900 28 -53 c31 -60 93 -113 150 -129 24 -6 320 -10 852 -10 660 1 822 3 853 14 63 23 113 64 143 119 28 49 29 59 32 197 3 111 7 147 18 153 11 7 14 54 14 258 l0 250 29 24 c63 54 95 241 58 340 -25 68 -88 193 -103 206 -20 17 -21 389 0 389 30 0 103 95 126 164 29 88 25 198 -10 266 -26 50 -88 138 -113 159 -11 9 -17 29 -17 57 l0 44 43 -30 c55 -40 105 -47 162 -26 129 50 184 242 111 390 -39 79 -198 217 -286 248 -22 7 -30 16 -30 34 0 13 1 24 3 24 2 0 31 -11 65 -25 109 -44 181 -25 229 60 27 47 32 165 10 218 -36 84 -119 144 -283 207 -18 7 -22 19 -26 92 -6 95 -27 144 -80 194 -60 57 -93 68 -215 72 l-112 4 -64 77 c-107 126 -425 432 -506 486 -84 55 -330 182 -406 209 -27 10 -69 26 -92 37 -24 10 -47 19 -53 19 -6 0 -18 4 -28 9 -9 5 -28 13 -42 18 -72 28 -127 57 -175 93 -30 22 -58 40 -63 40 -5 0 -78 -35 -163 -78z m1635 -1464 c36 -61 93 -114 183 -168 63 -38 78 -52 78 -71 0 -21 -4 -24 -30 -21 -102 9 -192 5 -221 -10 -53 -29 -67 -61 -62 -142 8 -120 76 -224 232 -351 68 -55 86 -75 86 -95 0 -15 -2 -29 -5 -32 -3 -3 -35 14 -70 37 -114 77 -261 108 -332 72 -54 -28 -68 -61 -67 -157 1 -97 18 -155 72 -244 66 -110 295 -368 364 -412 l38 -24 -2 -788 -3 -787 -927 -3 -928 -2 0 1620 0 1620 785 0 784 0 25 -42z"/>
</g>
<g id="layer107" fill="#a4bcc4" stroke="none">
<path d="M2480 5776 c-224 -99 -477 -256 -722 -449 -121 -95 -162 -129 -239 -197 -117 -105 -141 -131 -133 -149 79 -195 109 -384 119 -756 12 -440 43 -561 226 -878 166 -285 213 -425 225 -657 7 -149 19 -193 64 -241 49 -51 93 -54 139 -7 30 31 38 48 84 177 12 36 28 66 35 69 9 3 12 -201 14 -905 3 -1020 -4 -933 80 -1014 75 -72 43 -70 969 -67 823 3 824 3 864 25 22 12 54 36 72 55 56 58 66 96 71 265 3 103 8 151 15 146 5 -3 7 -1 4 4 -4 6 -8 123 -10 261 -2 225 -1 249 14 245 24 -7 76 59 94 119 21 73 19 166 -6 241 -23 69 -89 197 -101 197 -4 0 -8 87 -8 193 l1 192 44 32 c31 23 53 52 77 100 30 61 33 76 33 153 0 74 -4 93 -31 150 -17 36 -54 92 -81 125 -46 55 -50 63 -44 98 l6 37 45 -30 c114 -76 246 -7 286 149 13 54 14 74 4 125 -7 33 -20 77 -30 96 -26 52 -144 158 -233 210 -59 35 -76 50 -77 68 0 28 5 28 76 -4 125 -55 227 8 241 148 13 146 -58 238 -245 315 l-73 30 -3 79 c-3 90 -19 134 -66 188 -56 63 -99 79 -228 84 l-112 5 -101 113 c-182 205 -415 418 -528 482 -132 75 -241 130 -315 158 -49 19 -103 41 -120 48 -17 8 -58 24 -91 37 -94 35 -191 86 -228 119 -37 32 -40 33 -77 16z m804 -1095 c4 -5 -13 -19 -37 -30 -29 -14 -51 -35 -66 -62 -16 -28 -26 -38 -34 -30 -16 16 35 85 80 109 46 24 50 25 57 13z m144 -24 c94 -63 90 -218 -8 -283 -22 -15 -44 -24 -48 -20 -8 9 38 45 58 46 22 0 54 106 45 151 -8 43 -66 103 -107 113 -16 3 -28 11 -28 17 0 16 48 2 88 -24z m-268 -137 c0 -11 -4 -20 -10 -20 -5 0 -10 9 -10 20 0 11 5 20 10 20 6 0 10 -9 10 -20z m19 -75 c28 -49 76 -75 134 -75 35 0 47 -4 45 -12 -11 -31 -109 -13 -158 28 -23 20 -60 75 -60 91 0 14 22 -3 39 -32z m809 -204 c35 -56 95 -109 190 -167 58 -36 67 -46 70 -73 3 -30 2 -32 -20 -25 -81 26 -185 26 -234 1 -53 -27 -67 -60 -62 -141 8 -120 76 -224 232 -351 68 -55 86 -75 86 -95 0 -15 -2 -29 -5 -32 -3 -3 -35 14 -70 37 -152 102 -323 116 -379 30 -39 -59 -29 -197 21 -302 53 -114 305 -412 396 -470 l37 -23 -2 -793 -3 -792 -927 -3 -928 -2 0 1625 0 1625 784 0 784 0 30 -49z m-1702 -1538 c-10 -10 -19 5 -10 18 6 11 8 11 12 0 2 -7 1 -15 -2 -18z m2089 -783 c0 -86 -4 -125 -12 -127 -9 -3 -12 30 -12 127 0 97 3 130 12 127 8 -2 12 -41 12 -127z m-715 -1055 l0 -25 -324 0 c-216 0 -327 4 -331 10 -4 6 -4 17 -1 25 5 13 56 15 331 15 l325 0 0 -25z"/>
</g>
<g id="layer108" fill="#ebbca8" stroke="none">
<path d="M2480 5776 c-224 -99 -477 -256 -722 -449 -121 -95 -162 -129 -239 -197 -117 -105 -141 -131 -133 -149 79 -195 109 -384 119 -756 11 -438 42 -556 222 -870 44 -77 95 -168 112 -203 73 -146 121 -348 121 -517 0 -201 136 -298 225 -161 9 13 35 81 59 152 l44 129 1 -911 c1 -1022 -2 -979 72 -1059 78 -84 25 -80 964 -80 791 0 832 1 865 19 69 36 103 69 129 125 l26 56 0 867 0 866 47 36 c33 26 56 55 80 103 30 61 33 76 33 153 0 74 -4 93 -31 150 -17 36 -54 93 -82 126 -42 50 -52 69 -52 98 0 20 3 36 8 36 4 0 27 -14 52 -30 114 -76 246 -7 286 149 40 157 -43 297 -250 425 -88 54 -110 79 -90 99 3 3 36 -8 72 -25 99 -44 158 -32 217 46 19 25 27 50 32 98 13 147 -58 238 -247 316 l-75 31 -5 88 c-7 101 -30 157 -83 197 -59 46 -99 56 -210 56 l-104 0 -49 63 c-120 155 -467 480 -583 545 -132 75 -241 130 -315 158 -49 19 -103 41 -120 48 -17 8 -58 24 -91 37 -94 35 -191 86 -228 119 -37 32 -40 33 -77 16z m805 -1096 c3 -6 -6 -15 -22 -21 -55 -20 -106 -87 -107 -139 -1 -37 37 -102 75 -128 29 -20 43 -23 98 -20 59 4 66 7 101 44 51 55 59 101 28 162 -17 35 -34 53 -68 70 -25 12 -46 27 -48 32 -6 16 26 11 68 -10 100 -51 120 -200 38 -277 -74 -69 -193 -66 -266 7 -41 41 -67 130 -42 145 6 4 8 10 5 15 -14 23 36 86 90 114 35 19 42 19 50 6z m703 -439 c35 -56 95 -109 190 -167 58 -36 67 -46 70 -73 3 -30 2 -32 -20 -25 -81 26 -185 26 -234 1 -53 -27 -67 -60 -62 -141 8 -120 76 -224 232 -351 68 -55 86 -75 86 -95 0 -15 -2 -29 -5 -32 -3 -3 -35 14 -70 37 -152 102 -323 116 -379 30 -39 -59 -29 -197 21 -302 53 -114 305 -412 396 -470 l37 -23 -2 -793 -3 -792 -927 -3 -928 -2 0 1625 0 1625 784 0 784 0 30 -49z m-328 -3376 l0 -25 -330 0 -330 0 0 25 0 25 330 0 330 0 0 -25z"/>
</g>
<g id="layer109" fill="#b7cbcf" stroke="none">
<path d="M2177 4798 c-302 -18 -476 -102 -597 -290 -22 -33 -49 -85 -61 -117 -21 -55 -21 -61 -10 -271 12 -229 21 -289 66 -440 32 -109 48 -143 158 -335 164 -285 210 -421 226 -662 13 -189 42 -255 118 -269 72 -13 105 29 167 212 l44 129 1 -911 c1 -1022 -2 -979 72 -1059 78 -84 25 -80 964 -80 791 0 832 1 865 19 69 36 103 69 129 125 l26 56 0 867 0 866 47 36 c33 25 56 54 77 98 l30 63 -15 70 c-38 183 -158 331 -345 424 -156 77 -269 91 -316 38 -11 -12 -26 -40 -34 -62 -15 -41 -15 -46 19 -145 34 -102 204 -319 354 -456 l88 -79 -3 -790 -2 -790 -927 -3 -928 -2 0 1625 0 1625 785 0 785 0 0 50 c0 65 26 92 106 116 57 16 137 16 237 -2 l37 -7 0 79 c0 182 -91 264 -293 264 -57 0 -106 2 -108 4 -8 8 -1638 11 -1762 4z m1108 -118 c3 -6 -6 -15 -22 -21 -55 -20 -106 -87 -107 -139 -1 -37 37 -102 75 -128 29 -20 43 -23 98 -20 59 4 66 7 101 44 51 55 59 101 28 162 -17 35 -34 53 -68 70 -25 12 -46 27 -48 32 -6 16 26 11 68 -10 100 -51 120 -200 38 -277 -74 -69 -193 -66 -266 7 -41 41 -67 130 -42 145 6 4 8 10 5 15 -14 23 36 86 90 114 35 19 42 19 50 6z m-1007 -735 c1 -66 -2 -104 -8 -100 -6 3 -10 14 -10 23 0 10 -6 42 -14 72 -13 51 -13 56 6 82 10 15 21 28 23 28 1 0 3 -47 3 -105z m1382 -3080 l0 -25 -330 0 -330 0 0 25 0 25 330 0 330 0 0 -25z"/>
<path d="M4103 4396 c-53 -17 -100 -50 -118 -85 -13 -25 -12 -31 14 -77 31 -53 67 -85 179 -158 63 -41 72 -50 72 -77 0 -23 6 -32 28 -39 15 -6 35 -15 44 -20 25 -14 26 -13 21 14 -7 35 10 39 64 12 92 -46 161 -42 203 11 28 36 28 151 0 227 -35 93 -136 166 -268 195 -69 14 -186 13 -239 -3z"/>
<path d="M4030 3953 c-46 -24 -71 -71 -77 -146 -4 -52 -1 -68 18 -102 43 -72 101 -146 133 -168 18 -12 57 -42 88 -67 54 -43 57 -47 57 -90 1 -42 4 -48 44 -73 l42 -28 3 31 c2 16 7 30 11 30 4 0 28 -13 52 -30 75 -51 179 -36 223 32 19 29 46 155 46 211 -1 23 -7 59 -14 79 -33 93 -209 240 -361 302 -92 38 -213 46 -265 19z"/>
<path d="M4360 2158 c0 -60 4 -109 10 -113 6 -4 10 -57 10 -125 0 -68 -4 -121 -10 -125 -13 -8 -13 -82 -1 -89 17 -11 69 44 88 92 13 34 18 74 18 142 0 85 -4 103 -33 170 -18 41 -44 93 -57 115 l-25 40 0 -107z"/>
</g>
<g id="layer110" fill="#c9cfd0" stroke="none">
<path d="M2177 4798 c-302 -18 -476 -102 -597 -290 -22 -33 -49 -85 -61 -117 -21 -55 -21 -61 -10 -271 12 -229 21 -289 66 -440 32 -109 48 -143 158 -335 164 -285 210 -421 227 -663 13 -196 42 -257 127 -269 32 -4 43 -1 67 23 38 38 47 58 96 209 30 93 44 154 48 213 2 45 8 80 11 76 3 -3 8 -459 11 -1012 l5 -1007 22 -41 c34 -64 105 -121 167 -134 36 -7 299 -10 837 -8 l784 3 47 28 c26 15 59 42 72 60 59 77 56 32 56 955 l0 849 28 14 c62 31 102 72 131 132 l30 62 -15 70 c-38 183 -158 331 -345 424 -156 77 -269 91 -316 38 -11 -12 -26 -40 -34 -62 -15 -41 -15 -46 19 -145 34 -102 204 -319 354 -456 l88 -79 -3 -790 -2 -790 -927 -3 -928 -2 0 1625 0 1625 785 0 785 0 0 50 c0 65 26 92 106 116 57 16 137 16 237 -2 29 -5 37 -4 37 9 0 8 -7 17 -15 21 -10 3 -15 19 -15 48 0 50 -36 133 -71 164 -51 46 -100 64 -175 64 -108 0 -224 12 -218 22 3 5 16 8 27 7 36 -2 57 1 57 9 0 9 -1593 9 -1753 0z m1648 -19 c-4 -6 -245 -10 -643 -10 -697 -2 -702 -2 -697 -9 2 -3 -15 -15 -37 -27 -24 -14 -35 -17 -28 -8 8 9 9 15 2 15 -11 0 -16 -8 -70 -112 -17 -31 -32 -55 -33 -53 -2 2 -3 -49 -1 -113 2 -64 -1 -142 -6 -172 -8 -45 -10 -22 -10 125 -1 99 3 196 9 216 15 57 75 117 139 139 52 18 95 19 718 19 425 0 660 -3 657 -10z m-413 -110 c55 -28 82 -73 85 -142 1 -35 -3 -70 -11 -86 -69 -131 -271 -131 -335 1 -26 54 -26 91 -2 143 29 63 98 113 135 99 8 -3 17 -1 20 5 9 13 60 4 108 -20z m-1100 -517 c3 -40 1 -75 -3 -78 -5 -3 -9 32 -9 77 0 100 6 100 12 1z m-34 -207 c1 -66 -2 -104 -8 -100 -6 3 -10 14 -10 23 0 10 -6 42 -14 72 -13 51 -13 56 6 82 10 15 21 28 23 28 1 0 3 -47 3 -105z m29 -332 c-4 -3 -7 0 -7 7 0 7 3 10 7 7 3 -4 3 -10 0 -14z m0 -515 c-1 -84 -3 -16 -3 152 0 168 2 236 3 153 2 -84 2 -222 0 -305z m1353 -2233 l0 -25 -330 0 -330 0 0 25 0 25 330 0 330 0 0 -25z"/>
<path d="M2354 4678 c-4 -7 -3 -8 4 -4 7 4 12 9 12 12 0 8 -9 4 -16 -8z"/>
<path d="M3260 4655 c-59 -30 -81 -55 -95 -112 -11 -44 -10 -50 14 -91 56 -97 183 -111 258 -30 63 68 39 189 -45 225 -20 8 -45 19 -54 24 -23 12 -25 11 -78 -16z"/>
<path d="M4103 4396 c-53 -17 -100 -50 -118 -85 -13 -25 -12 -31 14 -77 31 -53 67 -85 179 -158 63 -41 72 -50 72 -77 0 -23 6 -32 28 -39 15 -6 35 -15 44 -20 24 -14 28 -13 22 5 -4 8 -10 13 -14 10 -7 -4 -20 17 -20 31 0 12 54 1 97 -20 92 -46 161 -42 203 11 28 36 28 151 0 227 -35 93 -136 166 -268 195 -69 14 -186 13 -239 -3z"/>
<path d="M4030 3953 c-46 -24 -71 -71 -77 -146 -4 -52 -1 -68 18 -102 43 -72 101 -146 133 -168 18 -12 57 -42 88 -67 53 -42 57 -48 57 -89 1 -45 9 -57 64 -86 26 -15 27 -15 27 10 0 14 -5 24 -12 23 -6 -2 -14 5 -16 14 -5 23 16 16 84 -29 62 -40 129 -45 181 -13 45 27 60 54 78 138 18 88 19 145 1 194 -33 93 -209 240 -361 302 -92 38 -213 46 -265 19z"/>
</g>
<g id="layer111" fill="#fcd0be" stroke="none">
<path d="M2177 4799 c-247 -17 -401 -73 -517 -189 -53 -53 -114 -147 -141 -219 -21 -55 -21 -61 -10 -271 12 -229 21 -289 66 -440 32 -109 48 -143 158 -335 164 -285 210 -421 227 -663 13 -196 42 -257 127 -269 32 -4 43 -1 67 23 38 38 47 58 96 209 l42 130 -4 525 c-3 364 -7 531 -15 545 -6 11 -18 49 -26 85 l-15 65 29 37 29 37 0 268 0 269 26 52 c30 60 78 103 134 122 22 7 37 17 34 21 -6 10 -140 9 -307 -2z"/>
<path d="M2465 4736 c-54 -25 -98 -70 -124 -126 -14 -32 -16 -206 -18 -1790 -2 -965 1 -1795 6 -1843 10 -102 36 -150 110 -202 l43 -30 816 -3 c908 -3 864 -6 936 64 76 74 71 -2 74 965 l2 867 27 7 c48 12 101 63 132 128 l30 62 -15 70 c-38 183 -158 331 -345 424 -156 77 -269 91 -316 38 -11 -12 -26 -40 -34 -62 -15 -41 -15 -46 19 -145 34 -102 204 -319 354 -456 l88 -79 0 -792 0 -793 -930 0 -930 0 0 1625 0 1625 785 0 785 0 0 50 c0 65 26 92 106 116 57 16 182 16 227 -2 15 -5 17 1 17 49 0 105 -56 196 -145 238 -38 18 -82 19 -845 19 l-805 0 -50 -24z m900 -47 c46 -13 99 -50 117 -82 16 -30 27 -96 17 -103 -4 -2 -6 -11 -3 -19 9 -22 -33 -88 -72 -114 -25 -17 -53 -25 -92 -28 -127 -7 -220 92 -198 211 9 46 72 114 121 131 49 17 60 18 110 4z m295 -3819 l0 -30 -330 0 -330 0 0 23 c0 13 3 27 7 30 3 4 152 7 330 7 l323 0 0 -30z"/>
<path d="M4103 4396 c-53 -17 -100 -50 -118 -85 -13 -25 -12 -31 14 -77 31 -53 67 -85 179 -158 63 -41 72 -50 72 -77 0 -22 6 -32 26 -39 34 -13 34 -13 34 15 0 23 3 25 28 18 15 -3 47 -16 72 -29 89 -44 159 -39 200 13 28 36 28 151 0 227 -35 93 -136 166 -268 195 -69 14 -186 13 -239 -3z"/>
<path d="M4030 3953 c-46 -24 -71 -71 -77 -146 -4 -52 -1 -68 18 -102 43 -72 101 -146 133 -168 18 -12 57 -42 88 -67 53 -42 57 -48 57 -88 1 -33 7 -49 24 -63 31 -26 35 -24 39 15 l3 34 65 -44 c55 -37 73 -44 115 -44 55 0 104 23 129 62 19 29 46 155 46 211 -1 23 -7 59 -14 79 -33 93 -209 240 -361 302 -92 38 -213 46 -265 19z"/>
<path d="M4360 2153 c0 -57 4 -105 10 -108 6 -4 10 -57 10 -125 0 -68 -4 -121 -10 -125 -13 -8 -13 -82 -1 -89 16 -10 68 42 86 86 23 58 31 175 16 234 -14 54 -70 178 -94 209 -15 19 -16 13 -17 -82z"/>
</g>
<g id="layer112" fill="#dde2e3" stroke="none">
<path d="M2465 4736 c-54 -25 -98 -70 -124 -126 -14 -32 -16 -206 -18 -1790 -2 -965 1 -1795 6 -1843 10 -102 36 -150 110 -202 l43 -30 816 -3 c908 -3 864 -6 936 64 77 74 71 -2 71 964 l0 865 -27 2 -28 2 0 -800 0 -799 -930 0 -930 0 0 1625 0 1625 783 0 783 0 0 51 c-1 45 3 54 31 79 46 42 101 53 221 47 l102 -5 0 48 c0 98 -58 191 -145 231 -38 18 -82 19 -845 19 l-805 0 -50 -24z m900 -47 c46 -13 99 -50 117 -82 16 -30 27 -96 17 -103 -4 -2 -6 -11 -3 -19 9 -22 -33 -88 -72 -114 -25 -17 -53 -25 -92 -28 -127 -7 -220 92 -198 211 9 46 72 114 121 131 49 17 60 18 110 4z m295 -3819 l0 -30 -330 0 -330 0 0 23 c0 13 3 27 7 30 3 4 152 7 330 7 l323 0 0 -30z"/>
<path d="M3283 4660 c-51 -12 -83 -38 -105 -87 -24 -55 -18 -99 19 -143 70 -84 191 -79 251 10 20 29 23 44 20 88 -4 43 -11 59 -38 87 -19 19 -41 37 -49 39 -43 11 -69 13 -98 6z"/>
<path d="M4250 4000 c0 -16 3 -30 8 -30 4 0 17 -3 30 -6 34 -9 31 39 -3 54 -35 16 -35 16 -35 -18z"/>
<path d="M4250 3376 c0 -27 6 -39 30 -56 l30 -21 0 38 c0 32 -5 42 -30 56 l-30 18 0 -35z"/>
</g>
<g id="layer113" fill="#fdfefe" stroke="none">
<path d="M2510 4751 c-77 -24 -151 -93 -169 -158 -8 -26 -11 -602 -11 -1844 0 -2018 -6 -1856 72 -1936 75 -77 34 -74 934 -71 l799 3 48 28 c60 35 102 93 116 158 7 33 11 325 11 873 l0 824 -30 4 -30 5 0 -799 0 -798 -930 0 -930 0 0 1625 0 1625 784 0 784 0 -5 43 c-5 38 -1 48 26 80 18 20 49 42 69 49 32 11 152 14 232 6 24 -3 25 -1 24 55 -2 103 -76 200 -172 227 -43 12 -1582 13 -1622 1z m896 -76 c67 -34 98 -83 98 -156 1 -103 -76 -179 -180 -178 -68 1 -105 14 -142 52 -93 96 -58 245 69 296 43 17 103 12 155 -14z m259 -3805 l0 -25 -332 -3 -333 -2 0 30 0 30 333 -2 332 -3 0 -25z"/>
<path d="M4250 4005 c0 -18 7 -28 26 -35 34 -13 34 -13 34 9 0 18 -34 51 -52 51 -5 0 -8 -11 -8 -25z"/>
<path d="M4250 3380 c0 -29 30 -69 53 -70 15 0 7 57 -10 72 -37 31 -43 31 -43 -2z"/>
</g>


</svg>